<?xml version="1.0" encoding="UTF-8" standalone="no"?>
<!DOCTYPE svg PUBLIC "-//W3C//DTD SVG 1.1//EN"
 "http://www.w3.org/Graphics/SVG/1.1/DTD/svg11.dtd">
<!-- Generated by graphviz version 2.40.1 (20161225.0304)
 -->
<!-- Title: G Pages: 1 -->
<svg width="483pt" height="747pt"
 viewBox="0.00 0.00 482.92 747.00" xmlns="http://www.w3.org/2000/svg" xmlns:xlink="http://www.w3.org/1999/xlink">
<g id="graph0" class="graph" transform="scale(1 1) rotate(0) translate(4 743)">
<title>G</title>
<polygon fill="#ffffff" stroke="transparent" points="-4,4 -4,-743 478.925,-743 478.925,4 -4,4"/>
<g id="clust1" class="cluster">
<title>cluster_Global</title>
<path fill="none" stroke="#c0c0c0" d="M362.1164,-8C362.1164,-8 454.925,-8 454.925,-8 460.925,-8 466.925,-14 466.925,-20 466.925,-20 466.925,-719 466.925,-719 466.925,-725 460.925,-731 454.925,-731 454.925,-731 362.1164,-731 362.1164,-731 356.1164,-731 350.1164,-725 350.1164,-719 350.1164,-719 350.1164,-20 350.1164,-20 350.1164,-14 356.1164,-8 362.1164,-8"/>
<text text-anchor="middle" x="408.5207" y="-718.2" font-family="Times,serif" font-size="11.00" fill="#c0c0c0">Global</text>
</g>
<g id="clust2" class="cluster">
<title>cluster_\Mag</title>
<path fill="none" stroke="#c0c0c0" d="M370.1164,-16C370.1164,-16 446.925,-16 446.925,-16 452.925,-16 458.925,-22 458.925,-28 458.925,-28 458.925,-692 458.925,-692 458.925,-698 452.925,-704 446.925,-704 446.925,-704 370.1164,-704 370.1164,-704 364.1164,-704 358.1164,-698 358.1164,-692 358.1164,-692 358.1164,-28 358.1164,-28 358.1164,-22 364.1164,-16 370.1164,-16"/>
<text text-anchor="middle" x="408.5207" y="-691.2" font-family="Times,serif" font-size="11.00" fill="#c0c0c0">Mag</text>
</g>
<g id="clust3" class="cluster">
<title>cluster_\Mag\Cookie</title>
<path fill="none" stroke="#c0c0c0" d="M384.7175,-606C384.7175,-606 432.3239,-606 432.3239,-606 438.3239,-606 444.3239,-612 444.3239,-618 444.3239,-618 444.3239,-665 444.3239,-665 444.3239,-671 438.3239,-677 432.3239,-677 432.3239,-677 384.7175,-677 384.7175,-677 378.7175,-677 372.7175,-671 372.7175,-665 372.7175,-665 372.7175,-618 372.7175,-618 372.7175,-612 378.7175,-606 384.7175,-606"/>
<text text-anchor="middle" x="408.5207" y="-664.2" font-family="Times,serif" font-size="11.00" fill="#c0c0c0">Cookie</text>
</g>
<g id="clust4" class="cluster">
<title>cluster_\Mag\Admin</title>
<path fill="none" stroke="#c0c0c0" d="M385.5207,-527C385.5207,-527 431.5207,-527 431.5207,-527 437.5207,-527 443.5207,-533 443.5207,-539 443.5207,-539 443.5207,-586 443.5207,-586 443.5207,-592 437.5207,-598 431.5207,-598 431.5207,-598 385.5207,-598 385.5207,-598 379.5207,-598 373.5207,-592 373.5207,-586 373.5207,-586 373.5207,-539 373.5207,-539 373.5207,-533 379.5207,-527 385.5207,-527"/>
<text text-anchor="middle" x="408.5207" y="-585.2" font-family="Times,serif" font-size="11.00" fill="#c0c0c0">Admin</text>
</g>
<g id="clust5" class="cluster">
<title>cluster_\Mag\Navbar</title>
<path fill="none" stroke="#c0c0c0" d="M384.7175,-448C384.7175,-448 432.3239,-448 432.3239,-448 438.3239,-448 444.3239,-454 444.3239,-460 444.3239,-460 444.3239,-507 444.3239,-507 444.3239,-513 438.3239,-519 432.3239,-519 432.3239,-519 384.7175,-519 384.7175,-519 378.7175,-519 372.7175,-513 372.7175,-507 372.7175,-507 372.7175,-460 372.7175,-460 372.7175,-454 378.7175,-448 384.7175,-448"/>
<text text-anchor="middle" x="408.5207" y="-506.2" font-family="Times,serif" font-size="11.00" fill="#c0c0c0">Navbar</text>
</g>
<g id="clust6" class="cluster">
<title>cluster_\Mag\Calendar</title>
<path fill="none" stroke="#c0c0c0" d="M378.1164,-261C378.1164,-261 438.925,-261 438.925,-261 444.925,-261 450.925,-267 450.925,-273 450.925,-273 450.925,-428 450.925,-428 450.925,-434 444.925,-440 438.925,-440 438.925,-440 378.1164,-440 378.1164,-440 372.1164,-440 366.1164,-434 366.1164,-428 366.1164,-428 366.1164,-273 366.1164,-273 366.1164,-267 372.1164,-261 378.1164,-261"/>
<text text-anchor="middle" x="408.5207" y="-427.2" font-family="Times,serif" font-size="11.00" fill="#c0c0c0">Calendar</text>
</g>
<g id="clust7" class="cluster">
<title>cluster_\Mag\Session</title>
<path fill="none" stroke="#c0c0c0" d="M381.4169,-182C381.4169,-182 435.6245,-182 435.6245,-182 441.6245,-182 447.6245,-188 447.6245,-194 447.6245,-194 447.6245,-241 447.6245,-241 447.6245,-247 441.6245,-253 435.6245,-253 435.6245,-253 381.4169,-253 381.4169,-253 375.4169,-253 369.4169,-247 369.4169,-241 369.4169,-241 369.4169,-194 369.4169,-194 369.4169,-188 375.4169,-182 381.4169,-182"/>
<text text-anchor="middle" x="408.5207" y="-240.2" font-family="Times,serif" font-size="11.00" fill="#c0c0c0">Session</text>
</g>
<g id="clust8" class="cluster">
<title>cluster_\Mag\App</title>
<path fill="none" stroke="#c0c0c0" d="M385.5207,-103C385.5207,-103 431.5207,-103 431.5207,-103 437.5207,-103 443.5207,-109 443.5207,-115 443.5207,-115 443.5207,-162 443.5207,-162 443.5207,-168 437.5207,-174 431.5207,-174 431.5207,-174 385.5207,-174 385.5207,-174 379.5207,-174 373.5207,-168 373.5207,-162 373.5207,-162 373.5207,-115 373.5207,-115 373.5207,-109 379.5207,-103 385.5207,-103"/>
<text text-anchor="middle" x="408.5207" y="-161.2" font-family="Times,serif" font-size="11.00" fill="#c0c0c0">App</text>
</g>
<g id="clust9" class="cluster">
<title>cluster_\Mag\Access</title>
<path fill="none" stroke="#c0c0c0" d="M384.7175,-24C384.7175,-24 432.3239,-24 432.3239,-24 438.3239,-24 444.3239,-30 444.3239,-36 444.3239,-36 444.3239,-83 444.3239,-83 444.3239,-89 438.3239,-95 432.3239,-95 432.3239,-95 384.7175,-95 384.7175,-95 378.7175,-95 372.7175,-89 372.7175,-83 372.7175,-83 372.7175,-36 372.7175,-36 372.7175,-30 378.7175,-24 384.7175,-24"/>
<text text-anchor="middle" x="408.5207" y="-82.2" font-family="Times,serif" font-size="11.00" fill="#c0c0c0">Access</text>
</g>
<!-- \\Mag\\Cookie\\Cookie -->
<g id="node1" class="node">
<title>\\Mag\\Cookie\\Cookie</title>
<polygon fill="none" stroke="#000000" points="436.1285,-650 380.9129,-650 380.9129,-614 436.1285,-614 436.1285,-650"/>
<text text-anchor="middle" x="408.5207" y="-628.7" font-family="Courier,monospace" font-size="11.00" fill="#000000">Cookie</text>
</g>
<!-- \\Mag\\Admin\\Admin -->
<g id="node2" class="node">
<title>\\Mag\\Admin\\Admin</title>
<polygon fill="none" stroke="#000000" points="435.5207,-571 381.5207,-571 381.5207,-535 435.5207,-535 435.5207,-571"/>
<text text-anchor="middle" x="408.5207" y="-549.7" font-family="Courier,monospace" font-size="11.00" fill="#000000">Admin</text>
</g>
<!-- \\Mag\\Navbar\\Navbar -->
<g id="node3" class="node">
<title>\\Mag\\Navbar\\Navbar</title>
<polygon fill="none" stroke="#000000" points="436.1285,-492 380.9129,-492 380.9129,-456 436.1285,-456 436.1285,-492"/>
<text text-anchor="middle" x="408.5207" y="-470.7" font-family="Courier,monospace" font-size="11.00" fill="#000000">Navbar</text>
</g>
<!-- \\Anax\\Common\\AppInjectableInterface -->
<g id="node10" class="node">
<title>\\Anax\\Common\\AppInjectableInterface</title>
<ellipse fill="none" stroke="#000000" cx="151.0582" cy="-501" rx="151.1164" ry="18"/>
<text text-anchor="middle" x="151.0582" y="-496.8" font-family="Times,serif" font-size="14.00" fill="#c0c0c0">\Anax\Common\AppInjectableInterface</text>
</g>
<!-- \\Mag\\Navbar\\Navbar&#45;&gt;\\Anax\\Common\\AppInjectableInterface -->
<g id="edge1" class="edge">
<title>\\Mag\\Navbar\\Navbar&#45;&gt;\\Anax\\Common\\AppInjectableInterface</title>
<path fill="none" stroke="#000000" stroke-dasharray="1,5" d="M380.4776,-476.9409C354.5858,-479.6561 314.2464,-483.8865 274.5693,-488.0474"/>
<polygon fill="none" stroke="#000000" points="274.0857,-484.5789 264.5053,-489.1028 274.8159,-491.5407 274.0857,-484.5789"/>
</g>
<!-- \\Anax\\Common\\ConfigureInterface -->
<g id="node11" class="node">
<title>\\Anax\\Common\\ConfigureInterface</title>
<ellipse fill="none" stroke="#000000" cx="151.0582" cy="-447" rx="136.1844" ry="18"/>
<text text-anchor="middle" x="151.0582" y="-442.8" font-family="Times,serif" font-size="14.00" fill="#c0c0c0">\Anax\Common\ConfigureInterface</text>
</g>
<!-- \\Mag\\Navbar\\Navbar&#45;&gt;\\Anax\\Common\\ConfigureInterface -->
<g id="edge2" class="edge">
<title>\\Mag\\Navbar\\Navbar&#45;&gt;\\Anax\\Common\\ConfigureInterface</title>
<path fill="none" stroke="#000000" stroke-dasharray="1,5" d="M380.4776,-471.0591C353.1489,-468.1932 309.7244,-463.6393 267.972,-459.2607"/>
<polygon fill="none" stroke="#000000" points="268.2822,-455.7741 257.9717,-458.212 267.5521,-462.736 268.2822,-455.7741"/>
</g>
<!-- \\Mag\\Calendar\\Calendar -->
<g id="node4" class="node">
<title>\\Mag\\Calendar\\Calendar</title>
<polygon fill="none" stroke="#000000" points="442.8296,-413 374.2118,-413 374.2118,-377 442.8296,-377 442.8296,-413"/>
<text text-anchor="middle" x="408.5207" y="-391.7" font-family="Courier,monospace" font-size="11.00" fill="#000000">Calendar</text>
</g>
<!-- \\Mag\\Calendar\\Month -->
<g id="node5" class="node">
<title>\\Mag\\Calendar\\Month</title>
<polygon fill="none" stroke="#000000" points="435.5207,-359 381.5207,-359 381.5207,-323 435.5207,-323 435.5207,-359"/>
<text text-anchor="middle" x="408.5207" y="-337.7" font-family="Courier,monospace" font-size="11.00" fill="#000000">Month</text>
</g>
<!-- \\Mag\\Calendar\\Week -->
<g id="node6" class="node">
<title>\\Mag\\Calendar\\Week</title>
<polygon fill="none" stroke="#000000" points="435.5207,-305 381.5207,-305 381.5207,-269 435.5207,-269 435.5207,-305"/>
<text text-anchor="middle" x="408.5207" y="-283.7" font-family="Courier,monospace" font-size="11.00" fill="#000000">Week</text>
</g>
<!-- \\Mag\\Session\\Session -->
<g id="node7" class="node">
<title>\\Mag\\Session\\Session</title>
<polygon fill="none" stroke="#000000" points="439.7286,-226 377.3128,-226 377.3128,-190 439.7286,-190 439.7286,-226"/>
<text text-anchor="middle" x="408.5207" y="-204.7" font-family="Courier,monospace" font-size="11.00" fill="#000000">Session</text>
</g>
<!-- \\Mag\\App\\App -->
<g id="node8" class="node">
<title>\\Mag\\App\\App</title>
<polygon fill="none" stroke="#000000" points="435.5207,-147 381.5207,-147 381.5207,-111 435.5207,-111 435.5207,-147"/>
<text text-anchor="middle" x="408.5207" y="-125.7" font-family="Courier,monospace" font-size="11.00" fill="#000000">App</text>
</g>
<!-- \\Mag\\Access\\Access -->
<g id="node9" class="node">
<title>\\Mag\\Access\\Access</title>
<polygon fill="none" stroke="#000000" points="436.1285,-68 380.9129,-68 380.9129,-32 436.1285,-32 436.1285,-68"/>
<text text-anchor="middle" x="408.5207" y="-46.7" font-family="Courier,monospace" font-size="11.00" fill="#000000">Access</text>
</g>
</g>
</svg>
