<?xml version="1.0" encoding="UTF-8" standalone="no"?>
<!DOCTYPE svg PUBLIC "-//W3C//DTD SVG 1.1//EN"
 "http://www.w3.org/Graphics/SVG/1.1/DTD/svg11.dtd">
<!-- Generated by graphviz version 2.40.1 (20161225.0304)
 -->
<!-- Title: G Pages: 1 -->
<svg width="483pt" height="826pt"
 viewBox="0.00 0.00 482.92 826.00" xmlns="http://www.w3.org/2000/svg" xmlns:xlink="http://www.w3.org/1999/xlink">
<g id="graph0" class="graph" transform="scale(1 1) rotate(0) translate(4 822)">
<title>G</title>
<polygon fill="#ffffff" stroke="transparent" points="-4,4 -4,-822 478.925,-822 478.925,4 -4,4"/>
<g id="clust1" class="cluster">
<title>cluster_Global</title>
<path fill="none" stroke="#c0c0c0" d="M362.1164,-8C362.1164,-8 454.925,-8 454.925,-8 460.925,-8 466.925,-14 466.925,-20 466.925,-20 466.925,-798 466.925,-798 466.925,-804 460.925,-810 454.925,-810 454.925,-810 362.1164,-810 362.1164,-810 356.1164,-810 350.1164,-804 350.1164,-798 350.1164,-798 350.1164,-20 350.1164,-20 350.1164,-14 356.1164,-8 362.1164,-8"/>
<text text-anchor="middle" x="408.5207" y="-797.2" font-family="Times,serif" font-size="11.00" fill="#c0c0c0">Global</text>
</g>
<g id="clust2" class="cluster">
<title>cluster_\Mag</title>
<path fill="none" stroke="#c0c0c0" d="M370.1164,-16C370.1164,-16 446.925,-16 446.925,-16 452.925,-16 458.925,-22 458.925,-28 458.925,-28 458.925,-771 458.925,-771 458.925,-777 452.925,-783 446.925,-783 446.925,-783 370.1164,-783 370.1164,-783 364.1164,-783 358.1164,-777 358.1164,-771 358.1164,-771 358.1164,-28 358.1164,-28 358.1164,-22 364.1164,-16 370.1164,-16"/>
<text text-anchor="middle" x="408.5207" y="-770.2" font-family="Times,serif" font-size="11.00" fill="#c0c0c0">Mag</text>
</g>
<g id="clust3" class="cluster">
<title>cluster_\Mag\Cookie</title>
<path fill="none" stroke="#c0c0c0" d="M384.7175,-685C384.7175,-685 432.3239,-685 432.3239,-685 438.3239,-685 444.3239,-691 444.3239,-697 444.3239,-697 444.3239,-744 444.3239,-744 444.3239,-750 438.3239,-756 432.3239,-756 432.3239,-756 384.7175,-756 384.7175,-756 378.7175,-756 372.7175,-750 372.7175,-744 372.7175,-744 372.7175,-697 372.7175,-697 372.7175,-691 378.7175,-685 384.7175,-685"/>
<text text-anchor="middle" x="408.5207" y="-743.2" font-family="Times,serif" font-size="11.00" fill="#c0c0c0">Cookie</text>
</g>
<g id="clust4" class="cluster">
<title>cluster_\Mag\Admin</title>
<path fill="none" stroke="#c0c0c0" d="M385.5207,-606C385.5207,-606 431.5207,-606 431.5207,-606 437.5207,-606 443.5207,-612 443.5207,-618 443.5207,-618 443.5207,-665 443.5207,-665 443.5207,-671 437.5207,-677 431.5207,-677 431.5207,-677 385.5207,-677 385.5207,-677 379.5207,-677 373.5207,-671 373.5207,-665 373.5207,-665 373.5207,-618 373.5207,-618 373.5207,-612 379.5207,-606 385.5207,-606"/>
<text text-anchor="middle" x="408.5207" y="-664.2" font-family="Times,serif" font-size="11.00" fill="#c0c0c0">Admin</text>
</g>
<g id="clust5" class="cluster">
<title>cluster_\Mag\Navbar</title>
<path fill="none" stroke="#c0c0c0" d="M384.7175,-527C384.7175,-527 432.3239,-527 432.3239,-527 438.3239,-527 444.3239,-533 444.3239,-539 444.3239,-539 444.3239,-586 444.3239,-586 444.3239,-592 438.3239,-598 432.3239,-598 432.3239,-598 384.7175,-598 384.7175,-598 378.7175,-598 372.7175,-592 372.7175,-586 372.7175,-586 372.7175,-539 372.7175,-539 372.7175,-533 378.7175,-527 384.7175,-527"/>
<text text-anchor="middle" x="408.5207" y="-585.2" font-family="Times,serif" font-size="11.00" fill="#c0c0c0">Navbar</text>
</g>
<g id="clust6" class="cluster">
<title>cluster_\Mag\Calendar</title>
<path fill="none" stroke="#c0c0c0" d="M378.1164,-340C378.1164,-340 438.925,-340 438.925,-340 444.925,-340 450.925,-346 450.925,-352 450.925,-352 450.925,-507 450.925,-507 450.925,-513 444.925,-519 438.925,-519 438.925,-519 378.1164,-519 378.1164,-519 372.1164,-519 366.1164,-513 366.1164,-507 366.1164,-507 366.1164,-352 366.1164,-352 366.1164,-346 372.1164,-340 378.1164,-340"/>
<text text-anchor="middle" x="408.5207" y="-506.2" font-family="Times,serif" font-size="11.00" fill="#c0c0c0">Calendar</text>
</g>
<g id="clust7" class="cluster">
<title>cluster_\Mag\Session</title>
<path fill="none" stroke="#c0c0c0" d="M381.4169,-261C381.4169,-261 435.6245,-261 435.6245,-261 441.6245,-261 447.6245,-267 447.6245,-273 447.6245,-273 447.6245,-320 447.6245,-320 447.6245,-326 441.6245,-332 435.6245,-332 435.6245,-332 381.4169,-332 381.4169,-332 375.4169,-332 369.4169,-326 369.4169,-320 369.4169,-320 369.4169,-273 369.4169,-273 369.4169,-267 375.4169,-261 381.4169,-261"/>
<text text-anchor="middle" x="408.5207" y="-319.2" font-family="Times,serif" font-size="11.00" fill="#c0c0c0">Session</text>
</g>
<g id="clust8" class="cluster">
<title>cluster_\Mag\Webshop</title>
<path fill="none" stroke="#c0c0c0" d="M381.4169,-182C381.4169,-182 435.6245,-182 435.6245,-182 441.6245,-182 447.6245,-188 447.6245,-194 447.6245,-194 447.6245,-241 447.6245,-241 447.6245,-247 441.6245,-253 435.6245,-253 435.6245,-253 381.4169,-253 381.4169,-253 375.4169,-253 369.4169,-247 369.4169,-241 369.4169,-241 369.4169,-194 369.4169,-194 369.4169,-188 375.4169,-182 381.4169,-182"/>
<text text-anchor="middle" x="408.5207" y="-240.2" font-family="Times,serif" font-size="11.00" fill="#c0c0c0">Webshop</text>
</g>
<g id="clust9" class="cluster">
<title>cluster_\Mag\App</title>
<path fill="none" stroke="#c0c0c0" d="M385.5207,-103C385.5207,-103 431.5207,-103 431.5207,-103 437.5207,-103 443.5207,-109 443.5207,-115 443.5207,-115 443.5207,-162 443.5207,-162 443.5207,-168 437.5207,-174 431.5207,-174 431.5207,-174 385.5207,-174 385.5207,-174 379.5207,-174 373.5207,-168 373.5207,-162 373.5207,-162 373.5207,-115 373.5207,-115 373.5207,-109 379.5207,-103 385.5207,-103"/>
<text text-anchor="middle" x="408.5207" y="-161.2" font-family="Times,serif" font-size="11.00" fill="#c0c0c0">App</text>
</g>
<g id="clust10" class="cluster">
<title>cluster_\Mag\Access</title>
<path fill="none" stroke="#c0c0c0" d="M384.7175,-24C384.7175,-24 432.3239,-24 432.3239,-24 438.3239,-24 444.3239,-30 444.3239,-36 444.3239,-36 444.3239,-83 444.3239,-83 444.3239,-89 438.3239,-95 432.3239,-95 432.3239,-95 384.7175,-95 384.7175,-95 378.7175,-95 372.7175,-89 372.7175,-83 372.7175,-83 372.7175,-36 372.7175,-36 372.7175,-30 378.7175,-24 384.7175,-24"/>
<text text-anchor="middle" x="408.5207" y="-82.2" font-family="Times,serif" font-size="11.00" fill="#c0c0c0">Access</text>
</g>
<!-- \\Mag\\Cookie\\Cookie -->
<g id="node1" class="node">
<title>\\Mag\\Cookie\\Cookie</title>
<polygon fill="none" stroke="#000000" points="436.1285,-729 380.9129,-729 380.9129,-693 436.1285,-693 436.1285,-729"/>
<text text-anchor="middle" x="408.5207" y="-707.7" font-family="Courier,monospace" font-size="11.00" fill="#000000">Cookie</text>
</g>
<!-- \\Mag\\Admin\\Admin -->
<g id="node2" class="node">
<title>\\Mag\\Admin\\Admin</title>
<polygon fill="none" stroke="#000000" points="435.5207,-650 381.5207,-650 381.5207,-614 435.5207,-614 435.5207,-650"/>
<text text-anchor="middle" x="408.5207" y="-628.7" font-family="Courier,monospace" font-size="11.00" fill="#000000">Admin</text>
</g>
<!-- \\Mag\\Navbar\\Navbar -->
<g id="node3" class="node">
<title>\\Mag\\Navbar\\Navbar</title>
<polygon fill="none" stroke="#000000" points="436.1285,-571 380.9129,-571 380.9129,-535 436.1285,-535 436.1285,-571"/>
<text text-anchor="middle" x="408.5207" y="-549.7" font-family="Courier,monospace" font-size="11.00" fill="#000000">Navbar</text>
</g>
<!-- \\Anax\\Common\\AppInjectableInterface -->
<g id="node11" class="node">
<title>\\Anax\\Common\\AppInjectableInterface</title>
<ellipse fill="none" stroke="#000000" cx="151.0582" cy="-580" rx="151.1164" ry="18"/>
<text text-anchor="middle" x="151.0582" y="-575.8" font-family="Times,serif" font-size="14.00" fill="#c0c0c0">\Anax\Common\AppInjectableInterface</text>
</g>
<!-- \\Mag\\Navbar\\Navbar&#45;&gt;\\Anax\\Common\\AppInjectableInterface -->
<g id="edge1" class="edge">
<title>\\Mag\\Navbar\\Navbar&#45;&gt;\\Anax\\Common\\AppInjectableInterface</title>
<path fill="none" stroke="#000000" stroke-dasharray="1,5" d="M380.4776,-555.9409C354.5858,-558.6561 314.2464,-562.8865 274.5693,-567.0474"/>
<polygon fill="none" stroke="#000000" points="274.0857,-563.5789 264.5053,-568.1028 274.8159,-570.5407 274.0857,-563.5789"/>
</g>
<!-- \\Anax\\Common\\ConfigureInterface -->
<g id="node12" class="node">
<title>\\Anax\\Common\\ConfigureInterface</title>
<ellipse fill="none" stroke="#000000" cx="151.0582" cy="-526" rx="136.1844" ry="18"/>
<text text-anchor="middle" x="151.0582" y="-521.8" font-family="Times,serif" font-size="14.00" fill="#c0c0c0">\Anax\Common\ConfigureInterface</text>
</g>
<!-- \\Mag\\Navbar\\Navbar&#45;&gt;\\Anax\\Common\\ConfigureInterface -->
<g id="edge2" class="edge">
<title>\\Mag\\Navbar\\Navbar&#45;&gt;\\Anax\\Common\\ConfigureInterface</title>
<path fill="none" stroke="#000000" stroke-dasharray="1,5" d="M380.4776,-550.0591C353.1489,-547.1932 309.7244,-542.6393 267.972,-538.2607"/>
<polygon fill="none" stroke="#000000" points="268.2822,-534.7741 257.9717,-537.212 267.5521,-541.736 268.2822,-534.7741"/>
</g>
<!-- \\Mag\\Calendar\\Calendar -->
<g id="node4" class="node">
<title>\\Mag\\Calendar\\Calendar</title>
<polygon fill="none" stroke="#000000" points="442.8296,-492 374.2118,-492 374.2118,-456 442.8296,-456 442.8296,-492"/>
<text text-anchor="middle" x="408.5207" y="-470.7" font-family="Courier,monospace" font-size="11.00" fill="#000000">Calendar</text>
</g>
<!-- \\Mag\\Calendar\\Month -->
<g id="node5" class="node">
<title>\\Mag\\Calendar\\Month</title>
<polygon fill="none" stroke="#000000" points="435.5207,-438 381.5207,-438 381.5207,-402 435.5207,-402 435.5207,-438"/>
<text text-anchor="middle" x="408.5207" y="-416.7" font-family="Courier,monospace" font-size="11.00" fill="#000000">Month</text>
</g>
<!-- \\Mag\\Calendar\\Week -->
<g id="node6" class="node">
<title>\\Mag\\Calendar\\Week</title>
<polygon fill="none" stroke="#000000" points="435.5207,-384 381.5207,-384 381.5207,-348 435.5207,-348 435.5207,-384"/>
<text text-anchor="middle" x="408.5207" y="-362.7" font-family="Courier,monospace" font-size="11.00" fill="#000000">Week</text>
</g>
<!-- \\Mag\\Session\\Session -->
<g id="node7" class="node">
<title>\\Mag\\Session\\Session</title>
<polygon fill="none" stroke="#000000" points="439.7286,-305 377.3128,-305 377.3128,-269 439.7286,-269 439.7286,-305"/>
<text text-anchor="middle" x="408.5207" y="-283.7" font-family="Courier,monospace" font-size="11.00" fill="#000000">Session</text>
</g>
<!-- \\Mag\\Webshop\\Webshop -->
<g id="node8" class="node">
<title>\\Mag\\Webshop\\Webshop</title>
<polygon fill="none" stroke="#000000" points="439.7286,-226 377.3128,-226 377.3128,-190 439.7286,-190 439.7286,-226"/>
<text text-anchor="middle" x="408.5207" y="-204.7" font-family="Courier,monospace" font-size="11.00" fill="#000000">Webshop</text>
</g>
<!-- \\Mag\\App\\App -->
<g id="node9" class="node">
<title>\\Mag\\App\\App</title>
<polygon fill="none" stroke="#000000" points="435.5207,-147 381.5207,-147 381.5207,-111 435.5207,-111 435.5207,-147"/>
<text text-anchor="middle" x="408.5207" y="-125.7" font-family="Courier,monospace" font-size="11.00" fill="#000000">App</text>
</g>
<!-- \\Mag\\Access\\Access -->
<g id="node10" class="node">
<title>\\Mag\\Access\\Access</title>
<polygon fill="none" stroke="#000000" points="436.1285,-68 380.9129,-68 380.9129,-32 436.1285,-32 436.1285,-68"/>
<text text-anchor="middle" x="408.5207" y="-46.7" font-family="Courier,monospace" font-size="11.00" fill="#000000">Access</text>
</g>
</g>
</svg>
